<svg width="40" height="40" viewBox="0 0 40 40" fill="none" xmlns="http://www.w3.org/2000/svg">
<g clipPath="url(#clip0_2114_2136)">
<path d="M38.7904 19.6938C38.7904 17.29 36.9691 15.2672 34.5241 14.69L40.0001 0.0353394H12.8626L18.351 14.7363C15.9829 15.36 14.2372 17.3475 14.2372 19.706C14.2372 21.4391 15.1929 22.976 16.6444 23.9235C16.0719 24.6632 15.4091 25.3453 14.6582 25.9922C13.2447 27.1947 11.6772 28.1188 9.98412 28.7316C8.456 27.7953 7.79412 26.1425 8.39225 24.6628C10.7226 24.016 12.4172 22.0397 12.4172 19.7169C12.4172 16.8628 9.85725 14.5507 6.7235 14.5507C3.57787 14.5507 1.01943 16.8738 1.01943 19.7288C1.01943 21.1391 1.65537 22.4328 2.67475 23.3569C2.58537 23.5194 2.49662 23.6803 2.40725 23.8538C1.55412 25.4494 0.585997 27.2522 0.215997 29.275C-0.52244 33.3191 0.687248 36.5675 3.6035 38.4047C5.24662 39.4338 7.05569 39.9538 9.00412 39.9538C12.3522 39.9538 15.7532 38.4278 19.0382 36.9482C21.3819 35.8972 23.8013 34.7985 26.1829 34.2675C27.0619 34.071 27.9785 33.955 28.9466 33.8282C30.9069 33.5741 32.9322 33.3082 34.7535 32.3488C36.8801 31.2282 38.3316 29.3553 38.7526 27.206C39.0697 25.5528 38.7526 23.8891 37.9369 22.4328C38.4941 21.6282 38.7921 20.6724 38.7904 19.6938ZM36.3076 19.6938C36.3076 21.3 34.8682 22.6063 33.0982 22.6063C31.3282 22.6063 29.8888 21.3 29.8888 19.6938C29.8888 19.1735 30.0416 18.6769 30.3088 18.2494C30.4104 18.0869 30.5385 17.926 30.6651 17.7869C30.7992 17.6439 30.9488 17.5161 31.111 17.406L31.1244 17.3938C31.2257 17.3244 31.3404 17.2547 31.4551 17.1863C31.4551 17.1863 31.4676 17.1863 31.4676 17.1741C31.5185 17.151 31.5697 17.1166 31.6213 17.0935C31.6335 17.0935 31.6457 17.0813 31.6588 17.0813C31.7104 17.0594 31.7738 17.0363 31.8369 17.0128C31.8972 16.9918 31.9567 16.9687 32.0154 16.9435C32.0279 16.9435 32.041 16.931 32.0532 16.931C32.1044 16.9203 32.1557 16.8969 32.206 16.886C32.2194 16.886 32.2451 16.8738 32.2572 16.8738C32.3207 16.8628 32.3719 16.8507 32.4354 16.8394H32.4488L32.6394 16.8041C32.6526 16.8041 32.6769 16.8041 32.6904 16.7932C32.7416 16.7932 32.7919 16.781 32.8432 16.781H32.9066C32.9701 16.781 33.0347 16.77 33.1104 16.77H33.2763C33.3263 16.77 33.3657 16.77 33.4157 16.781H33.4413C33.5438 16.7935 33.6451 16.8041 33.7476 16.8275C35.1991 17.1044 36.3076 18.2838 36.3076 19.6938ZM16.4147 2.34628H36.4466L31.8494 14.6547C31.6588 14.69 31.4672 14.7472 31.2769 14.8047L26.4382 5.84846L21.5857 14.7469C21.3941 14.6897 21.1904 14.6544 20.9876 14.62L16.4147 2.34628ZM25.5201 18.6875C25.2785 17.601 24.6669 16.6307 23.8013 15.9141L26.4382 11.0838L29.0991 16.0178C28.3094 16.7344 27.7366 17.6475 27.5072 18.6875H25.5201ZM19.1407 16.8625C19.2041 16.85 19.2554 16.8394 19.3188 16.8272H19.3566C19.4079 16.8163 19.4594 16.8163 19.5094 16.8038H19.5607C19.6119 16.8038 19.6497 16.7928 19.701 16.7928H20.1979C20.2479 16.7928 20.2869 16.8038 20.3247 16.8038C20.3504 16.8038 20.3626 16.8038 20.3882 16.8163C20.4394 16.8272 20.4772 16.8272 20.5288 16.8394C20.5407 16.8394 20.5541 16.8394 20.5797 16.8503C20.6435 16.8625 20.7069 16.8735 20.7579 16.8857H20.7704C20.8216 16.8966 20.8729 16.9075 20.9229 16.931C20.9363 16.931 20.9485 16.9432 20.9741 16.9432C21.0119 16.9541 21.0632 16.9663 21.101 16.9894C21.1144 16.9894 21.1266 17.0003 21.1401 17.0003C21.1901 17.0238 21.2416 17.036 21.2929 17.0591H21.3051C21.3685 17.081 21.4197 17.1041 21.471 17.1397H21.4835C21.5344 17.1628 21.5857 17.1969 21.6369 17.22C21.6494 17.22 21.6494 17.2325 21.6613 17.2325C21.7126 17.2544 21.7507 17.2897 21.8019 17.3128L21.8154 17.3238C21.9679 17.4278 22.1082 17.5438 22.2472 17.6597L22.2607 17.6707C22.3879 17.7975 22.5147 17.9366 22.6172 18.0869C22.9482 18.5494 23.1397 19.0928 23.1397 19.6822C23.1397 21.2888 21.7004 22.5938 19.9304 22.5938C18.1604 22.5938 16.721 21.2888 16.721 19.6822C16.7079 18.3297 17.7394 17.186 19.1407 16.8625ZM6.60881 16.7807C8.37912 16.7807 9.81818 18.0869 9.81818 19.6932C9.81818 21.2997 8.37912 22.6057 6.60881 22.6057C4.83881 22.6057 3.39944 21.2997 3.39944 19.6932C3.39944 18.0869 4.83881 16.7807 6.60881 16.7807ZM36.2307 26.8016C35.951 28.2797 34.9438 29.575 33.4669 30.3488C32.0788 31.0775 30.3722 31.3082 28.5766 31.5391C27.5966 31.666 26.5651 31.805 25.5713 32.0247C22.9226 32.6144 20.376 33.7703 17.9054 34.8788C14.7472 36.301 11.7663 37.6413 9.00412 37.6413C7.56475 37.6413 6.27819 37.2716 5.05631 36.4975C2.25475 34.741 2.39381 31.4475 2.726 29.6444C3.031 27.9563 3.88443 26.3732 4.69975 24.8594C4.74975 24.7666 4.78881 24.686 4.83881 24.5932C5.11975 24.686 5.41256 24.7557 5.71787 24.8019C5.23444 27.2519 6.60881 29.7825 9.2835 31.0313L9.76787 31.2619L10.2894 31.0885C12.5185 30.3719 14.5813 29.205 16.4026 27.6447C17.4341 26.766 18.3132 25.8188 19.0516 24.7897C19.3444 24.8363 19.6376 24.8485 19.9304 24.8485C22.5794 24.8485 24.8072 23.1953 25.4444 20.9763H27.5832C28.2204 23.2066 30.4491 24.8482 33.0982 24.8482C34.1554 24.8482 35.1357 24.5825 35.9754 24.1319C36.3076 24.9985 36.4088 25.8994 36.2307 26.8016Z" fill="#99425B"/>
</g>
<defs>
<clipPath id="clip0_2114_2136">
<rect width="40" height="40" fill="white"/>
</clipPath>
</defs>
</svg>
