<svg width="40" height="40" viewBox="0 0 40 40" fill="none" xmlns="http://www.w3.org/2000/svg">
<path d="M34.8257 13.3828C34.8257 11.1016 34.2282 8.9628 33.1757 7.10905C30.385 4.23686 24.315 3.57155 22.8079 7.09561C21.2597 10.7078 25.4082 14.7272 27.2213 14.4081C29.5297 14.0006 26.8138 8.70467 26.8138 8.70467C30.3444 15.3584 29.5297 13.3215 23.1472 19.4325C16.7647 25.5434 10.2469 38.4369 9.2963 38.98C9.25567 39.0072 9.21474 39.0275 9.16724 39.0478H34.2007C34.6419 39.0478 34.9272 38.5794 34.7304 38.1856L28.1854 25.2309C28.1169 25.0959 28.1027 24.9398 28.1456 24.7946C28.1886 24.6494 28.2854 24.5261 28.4163 24.45C32.2457 22.25 34.8257 18.1219 34.8257 13.3828Z" fill="#FF3333"/>
<path d="M34.8257 13.3828C34.8257 11.1016 34.2282 8.9628 33.1757 7.10905C30.385 4.23686 24.315 3.57155 22.8079 7.09561C21.2597 10.7078 25.4082 14.7272 27.2213 14.4081C29.5297 14.0006 26.8138 8.70467 26.8138 8.70467C30.3444 15.3584 29.5297 13.3215 23.1472 19.4325C16.7647 25.5434 10.2469 38.4369 9.2963 38.98C9.25567 39.0072 9.21474 39.0275 9.16724 39.0478H34.2007C34.6419 39.0478 34.9272 38.5794 34.7304 38.1856L28.1854 25.2309C28.1169 25.0959 28.1027 24.9398 28.1456 24.7946C28.1886 24.6494 28.2854 24.5261 28.4163 24.45C32.2457 22.25 34.8257 18.1219 34.8257 13.3828Z" fill="#BF3338"/>
<path d="M9.29632 38.9799C10.2469 38.4368 16.7651 25.5365 23.1473 19.4256C29.5294 13.3146 30.3444 15.3518 26.8138 8.69775C26.8138 8.69775 13.3023 27.6409 8.41382 37.0109" fill="#FF3333"/>
<path d="M11.1975 22.0056C20.3228 5.22844 21.5178 3.53781 26.2706 3.53781C28.7693 3.53781 31.2881 4.665 32.9178 6.66781C30.6975 3.08969 26.7662 0.692812 22.2647 0.625H6.76372C6.43778 0.625 6.1731 0.889688 6.1731 1.21563V32.4619C7.09653 30.0787 8.66497 26.6703 11.1975 22.0056Z" fill="#FF3333"/>
<path d="M23.1473 19.4256C16.7651 25.5362 10.247 38.4368 9.29635 38.98C8.34572 39.5231 6.7501 39.5909 5.90166 38.6406C4.99854 37.629 3.59322 35.9925 11.1976 22.0059C20.3229 5.22871 21.5179 3.53809 26.2707 3.53809C28.7695 3.53809 31.2882 4.66527 32.9179 6.66809C33.006 6.81059 33.0945 6.95996 33.1826 7.10934C30.392 4.23715 24.322 3.57184 22.8148 7.0959C21.2667 10.7081 25.4151 14.7275 27.2282 14.4084C29.5367 14.0009 26.8207 8.70496 26.8207 8.70496C30.3445 15.3518 29.5298 13.315 23.1473 19.4256Z" fill="#FBB040"/>
<path opacity="0.3" d="M11.9445 22.7525C21.0698 5.97534 22.2648 4.28472 27.0176 4.28472C29.0748 4.28472 31.1457 5.0519 32.721 6.4369C31.0917 4.57659 28.6745 3.53784 26.2707 3.53784C21.5179 3.53784 20.3229 5.22847 11.1976 22.0057C3.59322 35.9925 4.99854 37.6288 5.90166 38.6403C6.03072 38.7828 6.1801 38.905 6.33635 39.0069C5.54166 37.8528 5.18885 35.171 11.9445 22.7525Z" fill="#FBB040"/>
</svg>
